<svg width="72" height="19" viewBox="0 0 72 19" fill="none" xmlns="http://www.w3.org/2000/svg">
<path d="M27.8663 6.68237H28.9863V14.6824H27.8663V6.68237ZM28.4343 5.28237C28.2529 5.28237 28.0983 5.22371 27.9703 5.10637C27.8476 4.98371 27.7863 4.83171 27.7863 4.65037C27.7863 4.46904 27.8476 4.31971 27.9703 4.20237C28.0983 4.07971 28.2529 4.01837 28.4343 4.01837C28.6103 4.01837 28.7596 4.07971 28.8823 4.20237C29.0103 4.31971 29.0743 4.46904 29.0743 4.65037C29.0743 4.83171 29.0129 4.98371 28.8903 5.10637C28.7676 5.22371 28.6156 5.28237 28.4343 5.28237ZM30.8819 14.6824V6.68237H32.0019V7.78637C32.2899 7.38104 32.6579 7.05837 33.1059 6.81837C33.5539 6.57837 34.0445 6.45837 34.5779 6.45837C35.1805 6.45837 35.7325 6.60771 36.2339 6.90637C36.7352 7.19971 37.1272 7.59171 37.4099 8.08237C37.6925 7.59171 38.0819 7.19971 38.5779 6.90637C39.0739 6.60771 39.6232 6.45837 40.2259 6.45837C40.8285 6.45837 41.3779 6.60504 41.8739 6.89837C42.3699 7.19171 42.7645 7.58637 43.0579 8.08237C43.3512 8.57837 43.4979 9.12771 43.4979 9.73037V14.6824H42.3779V9.97837C42.3779 9.55171 42.2739 9.15704 42.0659 8.79437C41.8579 8.43171 41.5779 8.14104 41.2259 7.92237C40.8792 7.69837 40.4925 7.58637 40.0659 7.58637C39.6392 7.58637 39.2499 7.69037 38.8979 7.89837C38.5512 8.10104 38.2739 8.38371 38.0659 8.74637C37.8579 9.10371 37.7539 9.51437 37.7539 9.97837V14.6824H36.6339V9.97837C36.6339 9.51437 36.5299 9.10371 36.3219 8.74637C36.1139 8.38371 35.8339 8.10104 35.4819 7.89837C35.1299 7.69037 34.7405 7.58637 34.3139 7.58637C33.8925 7.58637 33.5059 7.69837 33.1539 7.92237C32.8019 8.14104 32.5219 8.43171 32.3139 8.79437C32.1059 9.15704 32.0019 9.55171 32.0019 9.97837V14.6824H30.8819ZM51.5204 6.68237H52.6404V14.6824H51.5204L51.4804 13.1944C51.219 13.701 50.8537 14.1117 50.3844 14.4264C49.915 14.7357 49.355 14.8904 48.7044 14.8904C48.1177 14.8904 47.5684 14.781 47.0564 14.5624C46.5444 14.3384 46.0937 14.0317 45.7044 13.6424C45.315 13.253 45.011 12.8024 44.7924 12.2904C44.5737 11.7784 44.4644 11.229 44.4644 10.6424C44.4644 10.0664 44.571 9.52504 44.7844 9.01837C45.003 8.51171 45.3017 8.06637 45.6804 7.68237C46.0644 7.29837 46.507 6.99971 47.0084 6.78637C47.515 6.56771 48.0564 6.45837 48.6324 6.45837C49.299 6.45837 49.8804 6.61837 50.3764 6.93837C50.8724 7.25304 51.267 7.66637 51.5604 8.17837L51.5204 6.68237ZM48.6804 13.8024C49.251 13.8024 49.7417 13.6637 50.1524 13.3864C50.563 13.1037 50.8777 12.725 51.0964 12.2504C51.3204 11.7757 51.4324 11.253 51.4324 10.6824C51.4324 10.0957 51.3204 9.56771 51.0964 9.09837C50.8724 8.62371 50.555 8.24771 50.1444 7.97037C49.7337 7.69304 49.2457 7.55437 48.6804 7.55437C48.115 7.55437 47.5977 7.69571 47.1284 7.97837C46.6644 8.25571 46.2937 8.63171 46.0164 9.10637C45.7444 9.58104 45.6084 10.1064 45.6084 10.6824C45.6084 11.2637 45.7497 11.7917 46.0324 12.2664C46.315 12.7357 46.6884 13.109 47.1524 13.3864C47.6217 13.6637 48.131 13.8024 48.6804 13.8024ZM60.445 6.68237H61.565V14.9784C61.565 15.4904 61.453 15.9704 61.229 16.4184C61.0103 16.8664 60.7117 17.2584 60.333 17.5944C59.9597 17.9357 59.533 18.2024 59.053 18.3944C58.573 18.5864 58.0743 18.6824 57.557 18.6824C57.0023 18.6824 56.4663 18.5544 55.949 18.2984C55.4317 18.0477 54.981 17.7117 54.597 17.2904C54.2183 16.869 53.949 16.4024 53.789 15.8904L54.821 15.4184C54.9223 15.8184 55.1117 16.1784 55.389 16.4984C55.6717 16.8237 56.0023 17.0797 56.381 17.2664C56.765 17.4584 57.157 17.5544 57.557 17.5544C57.925 17.5544 58.2797 17.485 58.621 17.3464C58.9677 17.213 59.277 17.029 59.549 16.7944C59.8263 16.5597 60.045 16.285 60.205 15.9704C60.365 15.661 60.445 15.3304 60.445 14.9784V13.2104C60.1677 13.7117 59.7917 14.117 59.317 14.4264C58.8477 14.7357 58.301 14.8904 57.677 14.8904C57.117 14.8904 56.589 14.781 56.093 14.5624C55.6023 14.3437 55.1703 14.0424 54.797 13.6584C54.4237 13.269 54.1303 12.821 53.917 12.3144C53.709 11.8077 53.605 11.2637 53.605 10.6824C53.605 10.101 53.709 9.55704 53.917 9.05037C54.1303 8.53837 54.4237 8.09037 54.797 7.70637C55.1703 7.31704 55.6023 7.01304 56.093 6.79437C56.589 6.57571 57.117 6.46637 57.677 6.46637C58.301 6.46637 58.8477 6.62104 59.317 6.93037C59.7917 7.23437 60.1677 7.63971 60.445 8.14637V6.68237ZM57.685 13.8024C58.2397 13.8024 58.717 13.6584 59.117 13.3704C59.5223 13.0824 59.8343 12.701 60.053 12.2264C60.2717 11.7517 60.381 11.237 60.381 10.6824C60.381 10.1117 60.269 9.59171 60.045 9.12237C59.8263 8.64771 59.5143 8.26904 59.109 7.98637C58.7037 7.69837 58.229 7.55437 57.685 7.55437C57.141 7.55437 56.645 7.69571 56.197 7.97837C55.7543 8.25571 55.4023 8.63171 55.141 9.10637C54.8797 9.58104 54.749 10.1064 54.749 10.6824C54.749 11.2584 54.8823 11.7837 55.149 12.2584C55.4157 12.7277 55.7703 13.1037 56.213 13.3864C56.661 13.6637 57.1517 13.8024 57.685 13.8024ZM66.9331 14.8904C66.1971 14.8904 65.5251 14.701 64.9171 14.3224C64.3145 13.9437 63.8318 13.437 63.4691 12.8024C63.1118 12.1624 62.9331 11.4557 62.9331 10.6824C62.9331 10.0957 63.0371 9.54904 63.2451 9.04237C63.4531 8.53037 63.7385 8.08237 64.1011 7.69837C64.4691 7.30904 64.8958 7.00504 65.3811 6.78637C65.8665 6.56771 66.3838 6.45837 66.9331 6.45837C67.5251 6.45837 68.0691 6.57571 68.5651 6.81037C69.0665 7.04504 69.4958 7.37304 69.8531 7.79437C70.2158 8.21571 70.4878 8.70904 70.6691 9.27437C70.8558 9.83971 70.9331 10.4504 70.9011 11.1064H64.1171C64.1811 11.613 64.3411 12.0664 64.5971 12.4664C64.8585 12.8664 65.1891 13.1837 65.5891 13.4184C65.9945 13.6477 66.4425 13.765 66.9331 13.7704C67.4665 13.7704 67.9465 13.6317 68.3731 13.3544C68.8051 13.077 69.1518 12.6957 69.4131 12.2104L70.5491 12.4744C70.2291 13.1837 69.7465 13.765 69.1011 14.2184C68.4558 14.6664 67.7331 14.8904 66.9331 14.8904ZM64.0851 10.2024H69.7731C69.7358 9.70637 69.5838 9.25304 69.3171 8.84237C69.0558 8.42637 68.7171 8.09571 68.3011 7.85037C67.8851 7.59971 67.4291 7.47437 66.9331 7.47437C66.4371 7.47437 65.9838 7.59704 65.5731 7.84237C65.1625 8.08237 64.8265 8.41037 64.5651 8.82637C64.3038 9.23704 64.1438 9.69571 64.0851 10.2024Z" fill="#03A965"/>
<path d="M26.9062 15.6824H71.3891V16.0824H26.9062V15.6824Z" fill="#03A965"/>
<path d="M16.4694 11.6069V14.8396C16.4694 15.2682 16.2991 15.6794 15.996 15.9825C15.6928 16.2856 15.2817 16.4559 14.853 16.4559H3.5388C3.11013 16.4559 2.69901 16.2856 2.39589 15.9825C2.09278 15.6794 1.92249 15.2682 1.92249 14.8396V11.6069" stroke="#03A965" stroke-width="2" stroke-linecap="round" stroke-linejoin="round"/>
<path d="M13.2367 5.94973L9.19595 1.90894L5.15515 5.94973" stroke="#03A965" stroke-width="2" stroke-linecap="round" stroke-linejoin="round"/>
<path d="M9.1958 1.90894V11.6069" stroke="#03A965" stroke-width="2" stroke-linecap="round" stroke-linejoin="round"/>
</svg>
